<svg
  xmlns="http://www.w3.org/2000/svg"
  viewBox="0 0 908 908"
  fill="none"
>
  <g transform="matrix(1,0,0,1,0,-928)">
    <g transform="matrix(1.149367,0,0,1.149367,-2564.237975,750.997468)">
      <g transform="matrix(1,0,0,1,6.090308,-1.282128)">
        <g transform="matrix(1.234032,0,0,1.234032,1694.225279,-241.749319)">
          <path
            d="M758.172,663.922C698.66,685.582 643.738,701.605 603.961,709.727C567.359,717.18 543.598,717.984 540.816,710.344C538.137,702.977 555.445,689.078 586.094,672.156C589.145,670.469 590.875,667.082 590.402,663.625C590.395,663.566 590.387,663.508 590.379,663.449C589.598,657.707 583.457,654.383 578.25,656.93C499.203,695.648 450.227,731 456.652,748.652C463.227,766.719 526.336,761.668 615.156,739.145C618.379,738.328 621.801,739.445 623.863,742.051C665.793,794.922 738.363,817.637 805.258,793.289C889.801,762.52 909.566,700.883 911.523,655.285C912.648,629 904.039,610.832 758.172,663.922Z"
            fill="#3B82F6"
            fill-rule="nonzero"
          />
        </g>
        <g transform="matrix(1.234032,0,0,1.234032,1694.225279,-241.749319)">
          <path
            d="M1043.609,535.016C1036.895,516.562 971.352,522.211 879.684,545.906C838.336,489.969 763.676,465.363 695,490.359C624.102,516.164 599.453,565.645 591.824,606.082C586.516,634.219 590.93,659.414 737.16,606.191C795.738,584.871 849.863,569.027 889.484,560.793C927.129,552.957 951.684,551.996 954.516,559.77C956.996,566.586 942.363,578.984 915.879,594.227C910.008,597.605 907.047,604.379 908.355,611.023C908.375,611.133 908.395,611.238 908.414,611.344C910.398,621.559 921.684,626.949 930.984,622.289C1004.738,585.324 1049.781,551.973 1043.609,535.016Z"
            fill="#3B82F6"
            fill-rule="nonzero"
          />
        </g>
      </g>
    </g>
  </g>
</svg>
